<svg width="263" height="41" viewBox="0 0 263 41" fill="none" xmlns="http://www.w3.org/2000/svg">
<path d="M242.259 40.5884C239.128 40.5884 236.296 40.0666 233.762 39.0231C231.226 37.9794 229.046 36.5259 227.22 34.6623C225.393 32.7988 223.978 30.637 222.97 28.1771C222.003 25.7172 221.517 23.0709 221.517 20.2383C221.517 17.4056 222.003 14.7595 222.97 12.2996C223.978 9.83966 225.375 7.6965 227.164 5.87027C228.99 4.00663 231.171 2.57165 233.705 1.56534C236.278 0.521778 239.128 0 242.259 0C245.353 0 248.166 0.521778 250.701 1.56534C253.273 2.57165 255.453 4.00663 257.242 5.87027C259.068 7.6965 260.484 9.85828 261.49 12.3554C262.498 14.8154 263 17.4429 263 20.2383C263 23.0709 262.498 25.7172 261.49 28.1771C260.484 30.637 259.068 32.7988 257.242 34.6623C255.453 36.5259 253.273 37.9794 250.701 39.0231C248.166 40.0666 245.353 40.5884 242.259 40.5884ZM242.259 32.5938C243.898 32.5938 245.408 32.2955 246.788 31.6992C248.203 31.0657 249.415 30.1897 250.421 29.0715C251.427 27.9535 252.21 26.649 252.769 25.1582C253.328 23.6299 253.609 21.9901 253.609 20.2383C253.609 18.4866 253.328 16.8652 252.769 15.3744C252.21 13.8835 251.427 12.5791 250.421 11.4609C249.415 10.3428 248.203 9.48549 246.788 8.88921C245.408 8.25553 243.898 7.93877 242.259 7.93877C240.581 7.93877 239.053 8.25553 237.674 8.88921C236.296 9.48549 235.084 10.3428 234.041 11.4609C233.034 12.5791 232.252 13.9022 231.692 15.4303C231.171 16.9211 230.91 18.5238 230.91 20.2383C230.91 21.9901 231.171 23.6299 231.692 25.1582C232.252 26.649 233.034 27.9535 234.041 29.0715C235.084 30.1897 236.296 31.0657 237.674 31.6992C239.053 32.2955 240.581 32.5938 242.259 32.5938Z" fill="url(#slotoroGradient)"/>
<path d="M185.089 39.8614V0.726624H202.979C205.626 0.726624 208.029 1.30427 210.19 2.45974C212.39 3.6152 214.123 5.21779 215.39 7.26783C216.695 9.3177 217.347 11.6843 217.347 14.3679C217.347 16.865 216.75 19.1199 215.558 21.1327C214.365 23.1081 212.799 24.7107 210.862 25.9407L213.993 31.2517C214.179 31.5128 214.384 31.7176 214.608 31.8668C214.868 32.016 215.203 32.0904 215.614 32.0904H219.079L220.677 39.8614H213.601C211.924 39.8614 210.396 39.4702 209.016 38.6874C207.638 37.8674 206.557 36.8053 205.774 35.5008L201.582 28.0652C201.321 28.0652 201.042 28.0652 200.742 28.0652C200.481 28.0652 200.202 28.0652 199.904 28.0652H194.48V39.8614H185.089ZM194.48 20.294H201.916C202.997 20.294 204.005 20.0704 204.936 19.6231C205.867 19.1387 206.594 18.4678 207.116 17.6105C207.674 16.7161 207.954 15.6537 207.954 14.4238C207.954 13.1938 207.674 12.1502 207.116 11.2931C206.557 10.3985 205.812 9.72757 204.879 9.28045C203.985 8.79592 202.997 8.55365 201.916 8.55365H194.48V20.294Z" fill="url(#slotoroGradient)"/>
<path d="M159.381 40.5884C156.25 40.5884 153.418 40.0666 150.884 39.0231C148.348 37.9794 146.168 36.5259 144.342 34.6623C142.515 32.7988 141.1 30.637 140.092 28.1771C139.125 25.7172 138.639 23.0709 138.639 20.2383C138.639 17.4056 139.125 14.7595 140.092 12.2996C141.1 9.83966 142.497 7.6965 144.286 5.87027C146.113 4.00663 148.293 2.57165 150.827 1.56534C153.4 0.521778 156.25 0 159.381 0C162.475 0 165.289 0.521778 167.823 1.56534C170.395 2.57165 172.575 4.00663 174.364 5.87027C176.19 7.6965 177.606 9.85828 178.612 12.3554C179.62 14.8154 180.122 17.4429 180.122 20.2383C180.122 23.0709 179.62 25.7172 178.612 28.1771C177.606 30.637 176.19 32.7988 174.364 34.6623C172.575 36.5259 170.395 37.9794 167.823 39.0231C165.289 40.0666 162.475 40.5884 159.381 40.5884ZM159.381 32.5938C161.022 32.5938 162.53 32.2955 163.91 31.6992C165.325 31.0657 166.537 30.1897 167.543 29.0715C168.549 27.9535 169.332 26.649 169.891 25.1582C170.451 23.6299 170.731 21.9901 170.731 20.2383C170.731 18.4866 170.451 16.8652 169.891 15.3744C169.332 13.8835 168.549 12.5791 167.543 11.4609C166.537 10.3428 165.325 9.48549 163.91 8.88921C162.53 8.25553 161.022 7.93877 159.381 7.93877C157.705 7.93877 156.176 8.25553 154.796 8.88921C153.418 9.48549 152.206 10.3428 151.163 11.4609C150.157 12.5791 149.374 13.9022 148.815 15.4303C148.293 16.9211 148.032 18.5238 148.032 20.2383C148.032 21.9901 148.293 23.6299 148.815 25.1582C149.374 26.649 150.157 27.9535 151.163 29.0715C152.206 30.1897 153.418 31.0657 154.796 31.6992C156.176 32.2955 157.705 32.5938 159.381 32.5938Z" fill="url(#slotoroGradient)"/>
<path d="M128.383 39.8614C125.999 39.8614 123.892 39.3397 122.066 38.2961C120.277 37.2153 118.86 35.7803 117.818 33.9913C116.81 32.2022 116.308 30.2082 116.308 28.0092V8.55365H105.686V0.726624H136.266V8.55365H125.699V28.8479C125.699 29.705 125.999 30.4504 126.594 31.0841C127.191 31.7176 127.936 32.0346 128.83 32.0346H133.503L135.101 39.8614H128.383Z" fill="url(#slotoroGradient)"/>
<path d="M82.6448 40.5884C79.514 40.5884 76.6814 40.0666 74.1469 39.0231C71.6125 37.9794 69.4321 36.5259 67.6058 34.6623C65.7794 32.7988 64.3632 30.637 63.3569 28.1771C62.3879 25.7172 61.9033 23.0709 61.9033 20.2383C61.9033 17.4056 62.3879 14.7595 63.3569 12.2996C64.3632 9.83966 65.7608 7.6965 67.55 5.87027C69.3762 4.00663 71.5566 2.57165 74.091 1.56534C76.6626 0.521778 79.514 0 82.6448 0C85.7383 0 88.5522 0.521778 91.0867 1.56534C93.6584 2.57165 95.8388 4.00663 97.6278 5.87027C99.4542 7.6965 100.87 9.85828 101.877 12.3554C102.883 14.8154 103.386 17.4429 103.386 20.2383C103.386 23.0709 102.883 25.7172 101.877 28.1771C100.87 30.637 99.4542 32.7988 97.6278 34.6623C95.8388 36.5259 93.6584 37.9794 91.0867 39.0231C88.5522 40.0666 85.7383 40.5884 82.6448 40.5884ZM82.6448 32.5938C84.2847 32.5938 85.7941 32.2955 87.1732 31.6992C88.5896 31.0657 89.8009 30.1897 90.8072 29.0715C91.8135 27.9535 92.5962 26.649 93.1552 25.1582C93.7143 23.6299 93.9938 21.9901 93.9938 20.2383C93.9938 18.4866 93.7143 16.8652 93.1552 15.3744C92.5962 13.8835 91.8135 12.5791 90.8072 11.4609C89.8009 10.3428 88.5896 9.48549 87.1732 8.88921C85.7941 8.25553 84.2847 7.93877 82.6448 7.93877C80.9676 7.93877 79.4395 8.25553 78.0604 8.88921C76.6814 9.48549 75.4701 10.3428 74.4264 11.4609C73.4201 12.5791 72.6374 13.9022 72.0784 15.4303C71.5566 16.9211 71.2957 18.5238 71.2957 20.2383C71.2957 21.9901 71.5566 23.6299 72.0784 25.1582C72.6374 26.649 73.4201 27.9535 74.4264 29.0715C75.4701 30.1897 76.6814 31.0657 78.0604 31.6992C79.4395 32.2955 80.9676 32.5938 82.6448 32.5938Z" fill="url(#slotoroGradient)"/>
<path d="M48.2954 39.8614C45.8727 39.8614 43.7483 39.321 41.9219 38.2402C40.0957 37.1593 38.6794 35.7244 37.673 33.9353C36.6667 32.1463 36.1636 30.1709 36.1636 28.0092V0.726624H45.5559V28.6801C45.5559 29.5747 45.8727 30.3573 46.5064 31.0283C47.1401 31.699 47.9227 32.0346 48.8546 32.0346H59.1972L60.7946 39.8614H48.2954Z" fill="url(#slotoroGradient)"/>
<path d="M1.62137 39.8614V32.0346H18.3374C19.0829 32.0346 19.7538 31.8482 20.3501 31.4754C20.9465 31.1028 21.4123 30.6182 21.7478 30.0218C22.1204 29.4255 22.3068 28.7732 22.3068 28.0652C22.3068 27.3198 22.1204 26.6488 21.7478 26.0524C21.4123 25.4561 20.9465 24.9716 20.3501 24.599C19.7538 24.2262 19.0829 24.0398 18.3374 24.0398H12.2996C10.0261 24.0398 7.95739 23.5925 6.09392 22.6981C4.23028 21.8035 2.73943 20.4991 1.62137 18.7846C0.540402 17.0328 0 14.9457 0 12.523C0 10.1376 0.521781 8.06912 1.56534 6.31738C2.60907 4.56565 4.02525 3.20516 5.81424 2.23609C7.60339 1.22978 9.57877 0.726624 11.7404 0.726624H29.0156V8.55365H12.8027C12.1318 8.55365 11.5169 8.72126 10.9577 9.05681C10.3987 9.39219 9.97002 9.83948 9.67188 10.3985C9.37375 10.9575 9.22459 11.5726 9.22459 12.2435C9.22459 12.9143 9.37375 13.5294 9.67188 14.0884C9.97002 14.6102 10.3987 15.0388 10.9577 15.3742C11.5169 15.7098 12.1318 15.8774 12.8027 15.8774H19.1201C21.6173 15.8774 23.7791 16.3619 25.6053 17.331C27.4689 18.2628 28.9039 19.5859 29.9102 21.3003C30.9538 22.9776 31.4756 24.953 31.4756 27.2265C31.4756 29.91 30.9352 32.2022 29.8543 34.1031C28.8106 35.9665 27.3944 37.4015 25.6053 38.4078C23.8163 39.3769 21.8409 39.8614 19.6791 39.8614H1.62137Z" fill="url(#slotoroGradient)"/>
<defs>
  <linearGradient id="slotoroGradient" x1="0" y1="20.5" x2="263" y2="20.5" gradientUnits="userSpaceOnUse">
    <stop offset="0" stop-color="#D30BFF"/>
    <stop offset="0.45" stop-color="#8F00FF"/>
    <stop offset="1" stop-color="#1C003B"/>
  </linearGradient>
</defs>
</svg>
